<?xml version="1.0" encoding="UTF-8" standalone="no"?>
<!-- Created with Inkscape (http://www.inkscape.org/) -->

<svg
   width="82.417847mm"
   height="82.417847mm"
   viewBox="0 0 82.417847 82.417847"
   version="1.1"
   id="svg5"
   inkscape:version="1.1 (c68e22c387, 2021-05-23)"
   sodipodi:docname="draw.svg"
   xmlns:inkscape="http://www.inkscape.org/namespaces/inkscape"
   xmlns:sodipodi="http://sodipodi.sourceforge.net/DTD/sodipodi-0.dtd"
   xmlns="http://www.w3.org/2000/svg"
   xmlns:svg="http://www.w3.org/2000/svg">
  <sodipodi:namedview
     id="namedview7"
     pagecolor="#ffffff"
     bordercolor="#666666"
     borderopacity="1.0"
     inkscape:pageshadow="2"
     inkscape:pageopacity="0.0"
     inkscape:pagecheckerboard="0"
     inkscape:document-units="mm"
     showgrid="false"
     inkscape:zoom="1.0482005"
     inkscape:cx="323.88842"
     inkscape:cy="295.26794"
     inkscape:window-width="1920"
     inkscape:window-height="1017"
     inkscape:window-x="-8"
     inkscape:window-y="-8"
     inkscape:window-maximized="1"
     inkscape:current-layer="layer1" />
  <defs
     id="defs2" />
  <g
     inkscape:label="Calque 1"
     inkscape:groupmode="layer"
     id="layer1"
     transform="translate(-112.89148,-61.52469)">
    <circle
       style="fill:#ffffff;fill-opacity:0.995951;stroke:#000000;stroke-width:1.04501;stroke-linecap:round"
       id="path1208-4"
       cx="154.1004"
       cy="102.73361"
       r="40.686417" />
    <circle
       style="fill:none;fill-opacity:0.995951;stroke:#ff6600;stroke-width:0.964999;stroke-linecap:round"
       id="path1208"
       cx="154.1223"
       cy="102.71845"
       r="37.571213" />
    <path
       style="fill:#000000;stroke-width:0.121358"
       d="m 129.28934,127.81939 c -0.33487,-0.12313 -0.59234,-0.42132 -0.67031,-0.77633 -0.0612,-0.27881 0.69654,-2.39804 3.65147,-10.21185 2.05082,-5.42301 3.8164,-10.03206 3.92352,-10.24232 0.31535,-0.61896 29.06812,-29.168434 29.37614,-29.168434 0.70384,0 1.35534,0.800298 1.14577,1.407438 -0.0438,0.126994 -6.02762,6.185983 -13.29729,13.464418 l -13.21758,13.233518 0.39062,0.83474 c 0.30235,0.64611 0.40287,1.04638 0.44483,1.77119 l 0.0542,0.93644 0.56164,-0.25786 c 0.45837,-0.21046 0.79636,-0.2582 1.83845,-0.25968 1.19786,-0.002 1.32649,0.0227 2.08036,0.39378 0.93555,0.46056 1.57746,1.11876 2.02629,2.07769 0.28389,0.60652 0.31929,0.82982 0.3198,2.01697 4.6e-4,1.10922 -0.0434,1.42998 -0.2593,1.89701 l -0.25987,0.56207 0.86666,0.0839 c 0.47666,0.0461 1.27285,0.21951 1.7693,0.38525 l 0.90264,0.30135 13.29758,-13.29552 c 12.9642,-12.962192 13.30909,-13.295522 13.75689,-13.295522 0.65549,0 1.08211,0.444435 1.03164,1.074708 -0.0353,0.440618 -0.79511,1.227277 -14.41722,14.926564 -14.37025,14.45166 -14.38054,14.46168 -15.23046,14.81072 -1.98639,0.81576 -19.56208,7.41501 -19.72503,7.40628 -0.0983,-0.005 -0.26062,-0.0397 -0.36074,-0.0765 z m 13.52434,-7.14734 c 5.35946,-2.03241 6.57368,-2.56312 6.35788,-2.77892 -0.17973,-0.17973 -1.48438,-0.28177 -2.13358,-0.16685 -1.65098,0.29222 -1.68548,0.29038 -2.08764,-0.11178 -0.47126,-0.47127 -0.46485,-0.73503 0.0417,-1.71559 2.16726,-4.19482 -0.26883,-6.62553 -4.38039,-4.37073 -0.48077,0.26366 -0.98173,0.47938 -1.11325,0.47938 -0.13152,0 -0.40715,-0.14138 -0.61251,-0.31419 -0.43428,-0.36542 -0.49232,-0.89586 -0.19135,-1.7489 0.29487,-0.83575 0.17458,-2.66988 -0.1751,-2.66988 -0.26123,0 -0.65164,0.9231 -2.73874,6.47567 l -2.27442,6.05092 1.56084,1.56431 c 0.85846,0.86037 1.61303,1.56431 1.67685,1.56431 0.0638,0 2.79515,-1.01598 6.06966,-2.25775 z"
       id="path1638" />
  </g>
</svg>
