<?xml version="1.0" encoding="UTF-8" standalone="no"?>
<!-- Created with Inkscape (http://www.inkscape.org/) -->

<svg
   width="82.417847mm"
   height="82.417847mm"
   viewBox="0 0 82.417847 82.417847"
   version="1.1"
   id="svg5"
   inkscape:version="1.1 (c68e22c387, 2021-05-23)"
   sodipodi:docname="jdr.svg"
   xmlns:inkscape="http://www.inkscape.org/namespaces/inkscape"
   xmlns:sodipodi="http://sodipodi.sourceforge.net/DTD/sodipodi-0.dtd"
   xmlns="http://www.w3.org/2000/svg"
   xmlns:svg="http://www.w3.org/2000/svg">
  <sodipodi:namedview
     id="namedview7"
     pagecolor="#ffffff"
     bordercolor="#666666"
     borderopacity="1.0"
     inkscape:pageshadow="2"
     inkscape:pageopacity="0.0"
     inkscape:pagecheckerboard="0"
     inkscape:document-units="mm"
     showgrid="false"
     inkscape:zoom="1.0482005"
     inkscape:cx="335.33661"
     inkscape:cy="335.33661"
     inkscape:window-width="1920"
     inkscape:window-height="1017"
     inkscape:window-x="-8"
     inkscape:window-y="-8"
     inkscape:window-maximized="1"
     inkscape:current-layer="layer1" />
  <defs
     id="defs2" />
  <g
     inkscape:label="Calque 1"
     inkscape:groupmode="layer"
     id="layer1"
     transform="translate(-112.89148,-61.52469)">
    <circle
       style="fill:#ffffff;fill-opacity:0.995951;stroke:#000000;stroke-width:1.04501;stroke-linecap:round"
       id="path1208-4"
       cx="154.1004"
       cy="102.73361"
       r="40.686417" />
    <circle
       style="fill:none;fill-opacity:0.995951;stroke:#ff6600;stroke-width:0.964999;stroke-linecap:round"
       id="path1208"
       cx="154.1223"
       cy="102.71845"
       r="37.571213" />
    <path
       style="fill:#000000;stroke-width:0.10156"
       d="m 130.06603,125.42115 c -0.71957,-0.27657 -1.57211,-1.07388 -1.9211,-1.79665 -0.2352,-0.4871 -0.27978,-0.71352 -0.28379,-1.44117 -0.004,-0.73968 0.0359,-0.95043 0.2804,-1.47232 0.15684,-0.33498 0.37826,-0.70815 0.49205,-0.82928 0.17646,-0.18783 0.20921,-0.36714 0.22264,-1.21902 0.0129,-0.81557 0.0586,-1.08566 0.24902,-1.4723 0.52999,-1.07587 1.53732,-1.84213 2.62571,-1.99735 l 0.49252,-0.0703 0.0737,-1.61838 c 0.14531,-3.18861 0.74075,-5.00732 2.13441,-6.51926 1.00425,-1.08948 2.24965,-1.76055 5.05343,-2.72293 2.15663,-0.74028 2.65608,-0.98253 3.12368,-1.5151 0.43121,-0.49112 0.56585,-0.97522 0.51061,-1.836 -0.079,-1.230024 -0.64621,-2.045779 -1.7874,-2.570363 -0.46138,-0.212083 -0.65744,-0.242778 -1.34997,-0.211327 -0.89168,0.04052 -0.94488,0.07678 -1.04687,0.714586 -0.16766,1.048479 -0.96793,2.037844 -1.96663,2.431274 -0.53101,0.20918 -0.78208,0.232 -2.91691,0.26502 -2.09369,0.0324 -2.3726,0.0172 -2.68993,-0.14652 -0.61216,-0.31582 -0.61451,-0.33266 -0.58593,-4.19429 l 0.0259,-3.503833 0.44715,-0.660138 c 0.7296,-1.077099 1.87943,-2.470361 2.78218,-3.371162 1.61317,-1.609693 2.98074,-2.598 4.92088,-3.556182 0.68426,-0.337937 1.24354,-0.665638 1.24285,-0.728227 -7.7e-4,-0.06256 -0.11495,-0.524797 -0.25391,-1.027123 -0.13894,-0.502333 -0.25263,-1.063792 -0.25263,-1.247685 0,-0.465368 0.2596,-0.813353 0.70667,-0.947296 0.36944,-0.110691 0.49195,-0.06311 4.60378,1.788707 2.32332,1.04633 4.51257,2.090304 4.86497,2.319936 1.31011,0.853688 2.72617,2.515833 3.56506,4.184594 0.73593,1.463989 1.38641,4.018108 1.58935,6.240609 0.15487,1.696057 0.14309,12.50544 -0.0139,12.85021 -0.27234,0.59771 -1.13562,0.73627 -1.61302,0.25887 l -0.29686,-0.29685 -0.002,-5.31435 c -0.002,-5.752419 -0.0819,-7.577772 -0.40694,-9.262515 -0.69238,-3.587762 -2.39783,-6.252855 -4.72035,-7.376381 -0.70565,-0.34137 -5.6212,-2.538418 -5.6793,-2.538418 -0.0214,0 0.0251,0.212918 0.10345,0.473157 0.0782,0.260241 0.1424,0.599503 0.1424,0.753915 0,0.290558 -0.43629,0.904983 -0.64378,0.906623 -0.27219,0.0024 -2.33697,0.919454 -3.0663,1.362236 -1.90161,1.154489 -3.7714,2.87477 -5.22376,4.806038 l -0.82146,1.092357 0.0282,0.863263 0.0282,0.863257 0.30468,0.0279 c 0.60197,0.05499 0.77104,0.134914 0.96758,0.457286 0.27779,0.455591 0.25251,0.82436 -0.0822,1.198989 -0.21784,0.243807 -0.39236,0.328642 -0.7617,0.370273 l -0.47912,0.05403 v 0.596149 0.596152 h 1.61835 c 0.89009,0 1.73556,-0.04455 1.87882,-0.09898 0.39321,-0.149513 0.63957,-0.647764 0.72096,-1.457966 0.062,-0.617004 0.11513,-0.760683 0.36945,-0.998251 0.1634,-0.152635 0.55767,-0.376366 0.87616,-0.497187 1.85965,-0.705436 3.84243,-0.3499 5.25659,0.942551 1.0114,0.924358 1.50292,1.858204 1.66947,3.171862 0.19584,1.54469 -0.26933,2.98318 -1.2564,3.88532 -0.76635,0.70039 -1.65861,1.13407 -3.82106,1.85722 -1.03337,0.34557 -2.19735,0.79492 -2.5866,0.99854 -1.01971,0.53344 -1.90339,1.39854 -2.33794,2.28878 -0.56957,1.16688 -0.68227,1.73994 -0.73663,3.74574 l -0.0489,1.80269 h 5.02585 c 2.76424,0 5.16805,0.0285 5.34181,0.0631 1.02724,0.20546 1.13331,1.60043 0.15011,1.97424 -0.14655,0.0557 -2.89663,0.0955 -6.61705,0.0957 -6.17344,3.8e-4 -6.37633,0.006 -6.69729,0.20218 -0.41628,0.25381 -0.73452,0.76715 -0.73501,1.18559 -7.7e-4,0.69667 -0.53892,0.64305 6.45295,0.64305 3.77707,0 6.43297,0.0391 6.58524,0.0971 0.35068,0.13333 0.59082,0.5353 0.59082,0.98899 0,0.29684 -0.0691,0.44142 -0.31644,0.66247 l -0.31645,0.28272 h -6.85014 -6.85014 l -0.12206,0.22807 c -0.19381,0.36214 -0.14756,1.023 0.0996,1.42288 0.43987,0.71172 0.13565,0.68494 7.7797,0.68494 7.3626,0 7.29713,-0.004 7.56823,0.50218 0.20707,0.38694 0.12462,0.91521 -0.19232,1.23215 l -0.29685,0.29687 -7.19321,-0.005 c -6.96062,-0.005 -7.21042,-0.0119 -7.72568,-0.20996 z m 19.17183,0.10355 c -0.44922,-0.18168 -0.91421,-0.60216 -1.14652,-1.03679 -0.22744,-0.42547 -0.22757,-0.42914 -0.22757,-5.75766 0,-5.26446 0.003,-5.33705 0.21862,-5.73815 0.25336,-0.47078 0.55149,-0.76274 1.05088,-1.02912 0.33405,-0.17818 0.67674,-0.1896 5.68738,-0.1896 h 5.33192 l 0.48467,0.2849 c 0.26658,0.1567 0.60934,0.47326 0.76171,0.7035 l 0.27701,0.4186 v 5.54989 5.5499 l -0.25389,0.37505 c -0.13966,0.20629 -0.43276,0.50001 -0.65138,0.6527 l -0.39746,0.27766 -5.44226,0.0203 c -3.43823,0.0129 -5.53462,-0.017 -5.69311,-0.0812 z m 10.45768,-6.79445 v -4.8749 h -4.87489 -4.8749 v 4.8749 4.87489 h 4.8749 4.87489 z m -7.52327,2.54682 c -0.66907,-0.66906 -0.15819,-1.73434 0.83175,-1.73434 0.97609,0 1.47449,1.06868 0.80883,1.73434 -0.25131,0.25131 -0.37718,0.29687 -0.82028,0.29687 -0.44313,0 -0.56898,-0.0456 -0.8203,-0.29687 z m 3.63842,0.0404 c -0.74451,-0.74449 -0.10079,-1.88659 0.98151,-1.74146 0.48745,0.0653 0.97369,0.53386 0.97369,0.93811 0,0.33669 -0.25585,0.82335 -0.50217,0.95517 -0.10747,0.0575 -0.42068,0.10462 -0.69602,0.10462 -0.3999,0 -0.55223,-0.0517 -0.75701,-0.2564 z m -3.19553,-3.46801 c -0.12376,-0.0256 -0.34083,-0.18418 -0.48241,-0.35241 -0.74667,-0.88738 0.31117,-2.07838 1.39093,-1.56601 1.19593,0.56751 0.42548,2.19441 -0.90852,1.91842 z m 3.52577,-0.0606 c -0.49968,-0.17575 -0.77521,-0.73968 -0.60838,-1.24518 0.33036,-1.00099 1.91934,-0.95906 2.16668,0.0571 0.21217,0.87174 -0.63064,1.51427 -1.5583,1.18801 z m 10.76539,-0.32025 c -1.30093,-0.34939 -2.88821,-0.94385 -3.10887,-1.16429 -0.34145,-0.3411 -0.34017,-1.04039 0.003,-1.38309 0.41519,-0.4152 0.65857,-0.41028 2.00645,0.0406 0.68371,0.22872 1.27391,0.38181 1.31154,0.34019 0.15752,-0.17411 10.46096,-31.641484 10.38404,-31.713505 -0.0639,-0.05973 -10.96529,-3.680886 -19.86196,-6.597558 l -0.58286,-0.191081 -1.4742,4.48701 c -1.28531,3.912079 -1.5134,4.522788 -1.78003,4.766297 -0.42472,0.387872 -0.92725,0.381215 -1.32602,-0.01761 -0.22502,-0.225009 -0.29688,-0.39124 -0.29688,-0.686758 0,-0.421743 3.02411,-9.627761 3.30193,-10.051772 0.25235,-0.385137 0.75825,-0.643231 1.26166,-0.643657 0.30836,-2.57e-4 1.84577,0.461782 4.8749,1.465075 2.43347,0.805995 7.27573,2.407641 10.76056,3.55921 3.48484,1.151571 6.4633,2.159551 6.6188,2.239965 0.38509,0.199138 0.71496,0.688801 0.77734,1.153918 0.0426,0.31733 -0.9162,3.32117 -5.40381,16.930426 -3.00057,9.09956 -5.53068,16.67349 -5.62249,16.83096 -0.34001,0.58326 -1.08317,0.83962 -1.84265,0.63564 z m -2.54682,-5.53512 c -0.2111,-0.2111 -0.29686,-0.39611 -0.29686,-0.64042 0,-0.53916 0.39253,-1.57619 0.68313,-1.80478 0.63313,-0.49802 1.65275,0.003 1.65275,0.81258 0,0.35812 -0.49784,1.5723 -0.71825,1.75176 -0.3547,0.2888 -0.96818,0.23345 -1.32077,-0.11914 z m -4.10537,-10.03633 c -0.39018,-0.0901 -0.59591,-0.39361 -1.42903,-2.107929 -2.06289,-4.244851 -2.46639,-6.660437 -1.43836,-8.610816 0.58149,-1.103162 1.55633,-1.704732 2.88088,-1.777789 1.33953,-0.07388 2.46911,0.436223 3.09089,1.395811 l 0.31518,0.486414 0.52455,-0.201171 c 0.41893,-0.160667 0.67575,-0.190068 1.27552,-0.146018 1.38123,0.101447 2.45916,0.840753 3.0438,2.087618 0.22739,0.484944 0.26763,0.709012 0.26763,1.490078 0,0.864365 -0.0237,0.967354 -0.39725,1.723102 -0.79142,1.601308 -2.52252,3.018711 -5.79793,4.74725 -1.65045,0.87099 -1.97327,0.99722 -2.33588,0.91345 z m 1.767,-2.93758 c 2.85258,-1.548419 4.26845,-2.755504 4.65088,-3.965057 0.2132,-0.674289 0.0792,-1.197365 -0.41888,-1.634641 -0.67472,-0.59242 -1.50701,-0.490539 -2.23264,0.273304 -0.42126,0.443442 -0.86072,0.569273 -1.31918,0.377717 -0.39302,-0.164204 -0.55992,-0.454408 -0.76549,-1.330898 -0.15582,-0.664456 -0.35165,-0.949892 -0.77229,-1.12565 -0.72023,-0.300929 -1.5399,-0.08571 -1.92769,0.506129 -0.0914,0.139394 -0.21636,0.547075 -0.27783,0.905955 -0.19597,1.14398 0.26626,2.869262 1.44503,5.393609 0.27575,0.590548 0.55609,1.073714 0.62296,1.073714 0.0669,0 0.51467,-0.213377 0.99513,-0.474182 z M 142.3795,92.917589 c -0.62684,-0.344721 -0.75316,-1.124991 -0.2617,-1.616462 0.25131,-0.251316 0.37718,-0.296862 0.82029,-0.296862 0.44311,0 0.56899,0.04559 0.82029,0.296862 0.49831,0.498314 0.36082,1.292957 -0.28042,1.620893 -0.28044,0.14342 -0.83366,0.141186 -1.09846,-0.004 z m 15.87704,-10.193488 c -0.15509,-0.08422 -0.3215,-0.300013 -0.38894,-0.504344 -0.0998,-0.302586 -0.0842,-0.461772 0.10249,-1.042069 0.37758,-1.173776 1.11149,-1.576111 1.8072,-0.99071 0.39897,0.335709 0.44633,0.671966 0.20704,1.469906 -0.32439,1.08168 -0.96851,1.479545 -1.72776,1.067217 z"
       id="path1855" />
  </g>
</svg>
