<?xml version="1.0" encoding="UTF-8" standalone="no"?>
<!-- Created with Inkscape (http://www.inkscape.org/) -->

<svg
   width="82.417847mm"
   height="82.417847mm"
   viewBox="0 0 82.417847 82.417847"
   version="1.1"
   id="svg5"
   inkscape:version="1.1 (c68e22c387, 2021-05-23)"
   sodipodi:docname="game.svg"
   xmlns:inkscape="http://www.inkscape.org/namespaces/inkscape"
   xmlns:sodipodi="http://sodipodi.sourceforge.net/DTD/sodipodi-0.dtd"
   xmlns="http://www.w3.org/2000/svg"
   xmlns:svg="http://www.w3.org/2000/svg">
  <sodipodi:namedview
     id="namedview7"
     pagecolor="#ffffff"
     bordercolor="#666666"
     borderopacity="1.0"
     inkscape:pageshadow="2"
     inkscape:pageopacity="0.0"
     inkscape:pagecheckerboard="0"
     inkscape:document-units="mm"
     showgrid="false"
     inkscape:zoom="1.0482005"
     inkscape:cx="323.88842"
     inkscape:cy="295.26794"
     inkscape:window-width="1920"
     inkscape:window-height="1017"
     inkscape:window-x="-8"
     inkscape:window-y="-8"
     inkscape:window-maximized="1"
     inkscape:current-layer="layer1" />
  <defs
     id="defs2" />
  <g
     inkscape:label="Calque 1"
     inkscape:groupmode="layer"
     id="layer1"
     transform="translate(-112.89148,-61.52469)">
    <circle
       style="fill:#ffffff;fill-opacity:0.995951;stroke:#000000;stroke-width:1.04501;stroke-linecap:round"
       id="path1208-4"
       cx="154.1004"
       cy="102.73361"
       r="40.686417" />
    <circle
       style="fill:none;fill-opacity:0.995951;stroke:#ff6600;stroke-width:0.964999;stroke-linecap:round"
       id="path1208"
       cx="154.1223"
       cy="102.71845"
       r="37.571213" />
    <path
       style="fill:#000000;stroke-width:0.0650122"
       d="m 140.44543,119.95863 -0.0169,-2.74677 -2.74677,-0.0169 -2.74677,-0.0169 v -5.26609 -5.26609 l -2.42172,0.017 -2.42171,0.017 -0.0166,5.24975 -0.0166,5.24975 h -2.82766 -2.82765 v -8.12655 -8.12655 h 2.69801 2.69802 v -2.632991 -2.633003 h 2.633 2.633 v -2.794853 -2.794844 l 2.84429,-0.01694 2.84429,-0.01694 0.017,-2.543461 0.017,-2.54346 -0.20392,-0.04076 c -0.11214,-0.02241 -1.38509,-0.04076 -2.82878,-0.04076 h -2.62489 v -2.568009 -2.567992 h 2.82804 2.82804 v 2.567992 2.567992 h 2.6655 2.66551 v 2.567984 2.567992 h 7.83399 7.83399 v -2.567992 -2.567984 h 2.633 2.633 v -2.665512 -2.665504 h 2.99057 2.99057 v 2.697341 2.69735 l -2.9093,0.01694 -2.90931,0.01694 -0.017,2.584246 -0.017,2.584239 h 2.86057 2.86057 l 0.0169,2.681758 0.017,2.681767 2.64924,0.01702 2.64926,0.01694 v 2.567262 2.567262 h 2.69802 2.69801 v 8.28907 8.28908 h -2.86016 -2.86017 l -0.0166,-5.28225 -0.0166,-5.28226 -2.3567,-0.017 -2.3567,-0.017 v 5.23431 5.2343 h -2.86054 -2.86055 v 2.79553 2.79554 h -5.46103 -5.46104 v -2.92557 -2.92555 h 5.266 5.266 v -2.40561 -2.40562 l -13.14875,0.0164 -13.14875,0.0164 v 2.43797 2.43797 l 5.47729,0.0166 5.4773,0.0166 v 2.86018 2.86017 h -5.62287 -5.62287 z m 5.41158,-21.567851 v -2.665504 h -2.63301 -2.633 v 2.665504 2.665511 h 2.633 2.63301 z m 21.25903,0.0093 c 0,-1.423477 -0.0122,-2.600336 -0.0271,-2.615229 -0.0149,-0.01486 -1.19972,-0.01909 -2.633,-0.0094 l -2.60596,0.01768 v 2.594731 2.594719 l 0.17879,0.0206 c 0.0983,0.0113 1.28318,0.0126 2.633,0.002 l 2.45421,-0.0178 v -2.588132 z"
       id="path1421" />
  </g>
</svg>
