<?xml version="1.0" encoding="UTF-8" standalone="no"?>
<!-- Created with Inkscape (http://www.inkscape.org/) -->

<svg
   width="82.417847mm"
   height="82.417847mm"
   viewBox="0 0 82.417847 82.417847"
   version="1.1"
   id="svg5"
   inkscape:version="1.1 (c68e22c387, 2021-05-23)"
   sodipodi:docname="movie.svg"
   xmlns:inkscape="http://www.inkscape.org/namespaces/inkscape"
   xmlns:sodipodi="http://sodipodi.sourceforge.net/DTD/sodipodi-0.dtd"
   xmlns="http://www.w3.org/2000/svg"
   xmlns:svg="http://www.w3.org/2000/svg">
  <sodipodi:namedview
     id="namedview7"
     pagecolor="#ffffff"
     bordercolor="#666666"
     borderopacity="1.0"
     inkscape:pageshadow="2"
     inkscape:pageopacity="0.0"
     inkscape:pagecheckerboard="0"
     inkscape:document-units="mm"
     showgrid="false"
     inkscape:zoom="1.0482005"
     inkscape:cx="323.88842"
     inkscape:cy="295.26794"
     inkscape:window-width="1920"
     inkscape:window-height="1017"
     inkscape:window-x="-8"
     inkscape:window-y="-8"
     inkscape:window-maximized="1"
     inkscape:current-layer="layer1" />
  <defs
     id="defs2" />
  <g
     inkscape:label="Calque 1"
     inkscape:groupmode="layer"
     id="layer1"
     transform="translate(-112.89148,-61.52469)">
    <circle
       style="fill:#ffffff;fill-opacity:0.995951;stroke:#000000;stroke-width:1.04501;stroke-linecap:round"
       id="path1208-4"
       cx="154.1004"
       cy="102.73361"
       r="40.686417" />
    <path
       style="fill:#000000;stroke-width:0.264583"
       d="m 138.30112,131.31599 c -0.52007,-0.40909 -0.69714,-0.7878 -0.69714,-1.49102 0,-0.66149 -0.19409,-1.12252 -0.65076,-1.54574 -0.35792,-0.33171 -0.70957,-0.88114 -0.78145,-1.22097 -0.14401,-0.68083 -3.59487,-34.229654 -3.59487,-34.94889 0,-0.246445 -0.33401,-0.620805 -0.74224,-0.831909 -1.91546,-0.990522 -1.82985,-4.152441 0.13972,-5.160499 l 0.58811,-0.301003 -0.52098,-0.854443 c -0.62849,-1.030793 -0.71029,-3.564837 -0.14969,-4.637894 0.87201,-1.669164 2.54251,-2.69884 4.37849,-2.69884 0.75542,0 1.22451,-0.197464 1.84416,-0.776301 1.08816,-1.016496 2.41384,-1.431778 4.06431,-1.273188 1.21701,0.116939 1.39449,0.06157 1.96105,-0.61175 1.28606,-1.528393 4.40629,-2.000082 6.06053,-0.916178 0.54783,0.35895 0.65479,0.32958 1.42708,-0.391837 1.82637,-1.706094 4.78712,-1.706094 6.6135,0 0.77228,0.721417 0.87924,0.750787 1.42707,0.391837 1.65425,-1.083904 4.77447,-0.612215 6.06053,0.916178 0.56656,0.673325 0.74404,0.728689 1.96105,0.61175 1.65048,-0.15859 2.97616,0.256692 4.06432,1.273188 0.61964,0.578837 1.08873,0.776301 1.84416,0.776301 1.92135,0 3.65299,1.119223 4.38745,2.835772 0.54194,1.266583 0.46338,3.480769 -0.15976,4.502776 l -0.52208,0.856257 0.73614,0.380671 c 1.82493,0.943708 1.83861,3.949206 0.0229,5.021796 -0.42416,0.250559 -0.77228,0.657189 -0.7736,0.903624 -0.001,0.246434 -0.82227,8.361012 -1.82433,18.032392 l -1.82193,17.58434 -0.68922,0.54956 c -0.51566,0.41118 -0.6892,0.79205 -0.6892,1.5126 0,0.72526 -0.17214,1.09845 -0.69714,1.51142 -0.68775,0.54098 -0.91175,0.54837 -16.63307,0.54837 -15.72132,0 -15.94532,-0.007 -16.63307,-0.54837 z m 32.11119,-1.96517 v -0.66146 h -15.47812 -15.47813 v 0.66146 0.66145 h 15.47813 15.47812 z m -29.36875,-3.44346 c 0,-0.51146 -0.53578,-8.33465 -1.19062,-17.38486 -0.65485,-9.050212 -1.19063,-16.549404 -1.19063,-16.664868 0,-0.115463 -0.9525,-0.209934 -2.11666,-0.209934 -1.71182,0 -2.11667,0.07646 -2.11667,0.399733 0,0.219853 0.7739,7.898097 1.71979,17.062759 0.94589,9.16467 1.71979,16.90245 1.71979,17.19506 0,0.47386 0.17355,0.53202 1.5875,0.53202 h 1.5875 z m 5.19541,-1.2529 c -0.0874,-1.20055 -0.23579,-3.79015 -0.32985,-5.75469 l -0.17101,-3.57187 -1.04454,-1.14046 c -2.51736,-2.74854 -2.64064,-6.41445 -0.31805,-9.45721 l 0.94586,-1.23914 -0.16013,-3.4743 c -0.0881,-1.910862 -0.22825,-4.575632 -0.31152,-5.921692 l -0.15139,-2.4474 h -2.12966 -2.12967 l 0.14828,1.521354 c 0.0815,0.836746 0.6595,8.754408 1.28432,17.594788 l 1.13605,16.07343 h 1.69508 1.69508 z m 5.12334,-2.97656 v -5.15938 l -0.85989,-0.006 c -0.47295,-0.003 -1.3178,-0.11256 -1.87745,-0.24244 l -1.01755,-0.23612 0.16469,3.35129 c 0.0906,1.84321 0.23346,4.27403 0.31749,5.40182 l 0.15279,2.05052 h 1.55996 l 1.55996,10e-6 z m 5.29167,0 v -5.15938 h -1.71979 -1.71979 v 5.15938 5.15937 h 1.71979 1.71979 z m 5.12479,3.10885 c 0.084,-1.12778 0.2269,-3.5586 0.31749,-5.40181 l 0.1647,-3.3513 -1.01755,0.23613 c -0.55966,0.12987 -1.40451,0.23897 -1.87745,0.24244 l -0.8599,0.006 v 5.15938 5.15937 h 1.55996 1.55997 z m 6.21799,-14.02291 c 0.62483,-8.84038 1.20277,-16.758042 1.28433,-17.594788 l 0.14827,-1.521354 h -2.12966 -2.12967 l -0.15139,2.4474 c -0.0833,1.34606 -0.22345,4.01083 -0.31152,5.921692 l -0.16013,3.4743 0.94586,1.23914 c 2.31829,3.03712 2.18254,6.72622 -0.34924,9.49105 l -1.01334,1.10662 -0.17102,3.57187 c -0.0941,1.96454 -0.24249,4.55414 -0.32985,5.75469 l -0.15884,2.18281 h 1.69508 1.69507 z m 4.23644,12.83229 c 0.18065,-1.78263 0.97595,-9.51716 1.76733,-17.18784 0.79137,-7.670662 1.43887,-14.129806 1.43887,-14.353633 0,-0.332309 -0.38827,-0.406959 -2.11667,-0.406959 -1.16417,0 -2.11667,0.09447 -2.11667,0.209934 0,0.115464 -0.53578,7.614656 -1.19062,16.664868 -0.65485,9.05021 -1.19063,16.8734 -1.19063,17.38486 v 0.92991 h 1.53997 1.53997 z m -11.07083,-9.22124 c 2.60395,-0.55844 4.55115,-3.29952 4.09002,-5.75754 -0.29136,-1.55307 -0.47039,-1.87142 -2.30046,-3.67405 -1.83007,-1.80263 -14.46097,-1.71569 -16.06077,0.0167 -1.5998,1.73242 -2.40182,2.87741 -2.40395,4.15016 -0.004,2.31729 1.87048,4.76507 4.01621,5.24487 1.59968,0.3577 11.01475,0.37245 12.65895,0.0198 z m -11.37033,-12.14386 h 1.30569 v -4.064112 c 0,-2.23526 -0.0757,-4.61651 -0.16826,-5.291667 l -0.16825,-1.227553 h -2.0849 -2.08489 l 0.14559,3.37344 c 0.0801,1.85539 0.21115,4.34891 0.29127,5.541152 l 0.14568,2.16771 0.65618,-0.24948 c 0.36091,-0.13722 1.24376,-0.24949 1.96189,-0.24949 z m 13.30031,-6.416142 0.14993,-4.16719 h -2.06891 -2.06891 l -0.16399,0.992188 c -0.0902,0.545702 -0.16531,2.926952 -0.16691,5.291672 l -0.003,4.299472 1.38906,0.0186 c 0.76398,0.0102 1.62719,0.11226 1.91823,0.22675 0.47655,0.18745 0.54584,0.0738 0.69683,-1.14308 0.0922,-0.74317 0.23512,-3.226462 0.31758,-5.518412 z m -6.11867,2.44739 c 0.0303,-2.18281 0.0601,-4.53429 0.0661,-5.225517 l 0.011,-1.256771 h -2.11667 -2.11666 l 0.011,1.256771 c 0.006,0.691227 0.0358,3.042707 0.0661,5.225517 l 0.0551,3.968752 h 1.98438 1.98437 z m 20.27284,-8.697861 c 0.19988,-0.126715 0.31419,-0.553602 0.26458,-0.988136 l -0.0873,-0.765041 h -22.48958 -22.48959 l -0.0873,0.765041 c -0.0496,0.434534 0.0647,0.861421 0.26458,0.988136 0.45994,0.291577 44.16473,0.291577 44.62467,0 z m -31.06218,-4.200573 c -0.37752,-0.842419 -0.27034,-2.235252 0.19486,-2.532191 0.57871,-0.369395 1.27895,0.188911 1.27895,1.019714 0,0.35137 0.34169,0.893057 0.81405,1.29052 l 0.81405,0.684978 h 9.11632 c 9.67585,0 10.23341,-0.06338 11.32393,-1.287266 0.27764,-0.311603 0.5753,-0.999687 0.66146,-1.529078 0.18848,-1.158118 0.84102,-1.682348 1.45738,-1.170812 0.57877,0.480331 0.52412,1.685618 -0.13499,2.977584 l -0.55404,1.086014 1.70228,-0.136643 c 2.04041,-0.163784 2.92774,-0.686279 3.47092,-2.043825 0.52886,-1.321762 0.18476,-2.639468 -0.93541,-3.582025 -0.71871,-0.604761 -1.02344,-0.683073 -2.39371,-0.615164 -1.27413,0.06315 -1.61913,-0.0097 -1.82995,-0.386416 -0.71385,-1.275583 -1.924,-1.904394 -3.30585,-1.717771 -0.67923,0.09173 -0.7036,0.126073 -0.2304,0.324668 0.73734,0.309454 1.71979,1.230425 1.71979,1.612166 0,0.175097 -0.19096,0.476842 -0.42436,0.670545 -0.35654,0.295904 -0.55024,0.279939 -1.21207,-0.09989 -0.98153,-0.563324 -2.42212,-0.584611 -2.87208,-0.04244 -0.53943,0.649967 -1.43063,0.373297 -1.5282,-0.474421 -0.0683,-0.593183 0.0893,-0.828223 0.85989,-1.282905 0.51892,-0.306168 0.94349,-0.637479 0.94349,-0.736247 0,-0.415651 -0.88083,-1.387093 -1.59043,-1.754039 -1.40069,-0.724325 -2.69953,-0.404912 -4.08872,1.00551 -0.61824,0.627676 -0.92475,0.490285 -1.8001,-0.80687 -1.41037,-2.089995 -4.02087,-2.12535 -5.37915,-0.07285 -0.37366,0.564647 -0.83601,1.08673 -1.02742,1.160184 -0.19142,0.07345 -0.73679,-0.213529 -1.21194,-0.63774 -1.53657,-1.371848 -3.57776,-1.278041 -4.75496,0.218524 -0.67402,0.856871 -0.65645,1.118903 0.0751,1.120119 1.02032,0.0017 2.31511,0.965452 2.31511,1.723217 0,0.87783 -0.66304,1.112932 -1.59167,0.564377 -0.94006,-0.555307 -1.96202,-0.555307 -2.90208,0 -0.92039,0.543689 -1.59167,0.313615 -1.59167,-0.545529 0,-0.445981 0.25141,-0.803319 0.78836,-1.1205 0.9147,-0.540326 0.63457,-0.876729 -0.73535,-0.883086 -0.86949,-0.004 -2.42666,0.630221 -2.44268,0.99493 -0.005,0.105404 -0.18694,0.427853 -0.40515,0.716553 -0.33002,0.436644 -0.65598,0.512063 -1.93841,0.448506 -1.3345,-0.06614 -1.65101,0.01559 -2.35531,0.608228 -1.23749,1.041282 -1.53154,2.228564 -0.90354,3.648259 0.83132,1.879336 1.40075,2.033055 7.55737,2.040114 4.90752,0.0056 5.24015,-0.02449 5.04632,-0.456996 z m 6.8831,-3.602242 c -0.47494,-1.892305 1.5203,-4.13682 3.67738,-4.13682 1.63396,0 1.56773,1.405475 -0.0872,1.851109 -1.17955,0.317619 -1.59606,0.754153 -1.83272,1.920834 -0.13783,0.67949 -0.32177,0.875518 -0.88306,0.941095 -0.56811,0.06637 -0.74183,-0.04811 -0.87438,-0.576218 z"
       id="path854"
       sodipodi:nodetypes="ssssssscsssssssssssssssscsscscsssssscccccccccsssssssscscscssccsccccscccccccscssccccccccccccccscscccccccssccccscssccscccsssssssscccssszzcsssscscccccscssccccscccssccccccccscccccccccssccsssscssssscsssssssssssssssssssssssssssccssssssssssssss" />
    <circle
       style="fill:none;fill-opacity:0.995951;stroke:#ff6600;stroke-width:0.964999;stroke-linecap:round"
       id="path1208"
       cx="154.1223"
       cy="102.71845"
       r="37.571213" />
  </g>
</svg>
